<svg xmlns="http://www.w3.org/2000/svg" xmlns:xlink="http://www.w3.org/1999/xlink" width="1000" zoomAndPan="magnify" viewBox="0 0 750 749.999995" height="1000" preserveAspectRatio="xMidYMid meet" version="1.0"><defs><clipPath id="7aef641177"><path d="M 20.140625 20.140625 L 729.640625 20.140625 L 729.640625 729.640625 L 20.140625 729.640625 Z M 20.140625 20.140625 " clip-rule="nonzero"/></clipPath></defs><g clip-path="url(#7aef641177)"><path fill="#ff914d" d="M 20.140625 374.996094 C 20.140625 570.980469 179.019531 729.851562 374.996094 729.851562 C 570.980469 729.851562 729.851562 570.980469 729.851562 374.996094 C 729.851562 179.015625 570.980469 20.140625 374.996094 20.140625 C 179.019531 20.140625 20.140625 179.015625 20.140625 374.996094 " fill-opacity="1" fill-rule="nonzero"/></g><path fill="#e16112" d="M 567.910156 333.75 L 515.421875 295.644531 L 515.421875 221.996094 C 515.421875 218.789062 512.792969 216.164062 509.585938 216.164062 L 437.886719 216.164062 C 435.421875 216.164062 433.324219 217.730469 432.472656 219.90625 C 430.953125 220.5 429.75 221.699219 429.15625 223.226562 C 427.636719 223.816406 426.4375 225.019531 425.84375 226.539062 C 424.738281 226.972656 423.867188 227.761719 423.195312 228.734375 L 406.953125 216.949219 C 389.390625 204.203125 360.621094 204.203125 343.039062 216.949219 L 182.074219 333.75 C 178.808594 336.113281 176.28125 338.402344 174.453125 340.554688 C 173.171875 341.695312 172.027344 342.816406 171.105469 343.894531 C 169.855469 345.019531 168.71875 346.125 167.808594 347.1875 C 166.542969 348.332031 165.390625 349.449219 164.480469 350.53125 C 163.222656 351.648438 162.09375 352.753906 161.1875 353.816406 C 159.921875 354.949219 158.777344 356.0625 157.855469 357.140625 C 156.59375 358.277344 155.4375 359.398438 154.523438 360.480469 C 153.273438 361.601562 152.140625 362.703125 151.238281 363.765625 C 149.953125 364.910156 148.800781 366.035156 147.882812 367.121094 C 146.632812 368.242188 145.507812 369.339844 144.605469 370.398438 C 143.335938 371.535156 142.191406 372.648438 141.277344 373.726562 C 140 374.863281 138.855469 375.984375 137.933594 377.0625 C 136.6875 378.1875 135.554688 379.289062 134.648438 380.355469 C 133.378906 381.492188 132.214844 382.621094 131.292969 383.707031 C 130.054688 384.824219 128.925781 385.921875 128.019531 386.984375 C 126.761719 388.117188 125.613281 389.226562 124.699219 390.300781 C 123.425781 391.449219 122.261719 392.574219 121.34375 393.65625 C 120.097656 394.773438 118.976562 395.871094 118.066406 396.933594 C 116.78125 398.082031 115.632812 399.207031 114.707031 400.292969 C 113.464844 401.410156 112.339844 402.507812 111.433594 403.570312 C 110.167969 404.703125 109.035156 405.816406 108.113281 406.886719 C 106.828125 408.03125 105.675781 409.160156 104.757812 410.246094 C 103.511719 411.363281 102.386719 412.460938 101.480469 413.523438 C 100.203125 414.664062 99.054688 415.785156 98.136719 416.871094 C 96.878906 417.992188 95.746094 419.097656 94.84375 420.160156 C 93.566406 421.304688 92.417969 422.421875 91.5 423.503906 C 90.25 424.628906 89.113281 425.730469 88.207031 426.800781 C 86.949219 427.925781 85.8125 429.035156 84.898438 430.109375 C 83.621094 431.25 82.472656 432.375 81.550781 433.453125 C 80.292969 434.574219 79.167969 435.683594 78.261719 436.746094 C 76.984375 437.886719 75.828125 439.007812 74.917969 440.089844 C 73.667969 441.207031 72.539062 442.3125 71.628906 443.375 C 70.363281 444.507812 69.21875 445.625 68.300781 446.699219 C 67.03125 447.839844 65.878906 448.957031 64.964844 450.039062 C 63.710938 451.160156 62.574219 452.265625 61.679688 453.328125 C 60.394531 454.472656 59.246094 455.589844 58.324219 456.671875 C 57.082031 457.792969 55.953125 458.898438 55.046875 459.957031 C 53.777344 461.09375 52.632812 462.207031 51.71875 463.28125 C 50.445312 464.417969 49.296875 465.542969 48.371094 466.621094 C 47.128906 467.742188 46 468.847656 45.09375 469.910156 C 43.816406 471.054688 42.65625 472.179688 41.742188 473.261719 C 40.492188 474.386719 39.363281 475.484375 38.460938 476.542969 C 37.433594 477.464844 36.527344 478.363281 35.71875 479.246094 C 77.734375 616.148438 200.328125 717.800781 348.179688 728.851562 C 348.933594 728.160156 349.640625 727.4375 350.253906 726.652344 C 351.503906 725.660156 352.617188 724.558594 353.566406 723.34375 C 354.828125 722.347656 355.945312 721.238281 356.890625 720.015625 C 358.148438 719.023438 359.25 717.917969 360.195312 716.710938 C 361.457031 715.710938 362.570312 714.609375 363.519531 713.386719 C 364.777344 712.394531 365.886719 711.285156 366.84375 710.066406 C 368.101562 709.078125 369.203125 707.972656 370.144531 706.757812 C 371.414062 705.761719 372.527344 704.648438 373.472656 703.429688 C 374.726562 702.4375 375.835938 701.335938 376.789062 700.125 C 378.042969 699.128906 379.15625 698.023438 380.097656 696.804688 C 381.367188 695.804688 382.480469 694.699219 383.425781 693.480469 C 384.679688 692.492188 385.789062 691.382812 386.738281 690.171875 C 388 689.179688 389.105469 688.066406 390.0625 686.847656 C 391.316406 685.859375 392.425781 684.746094 393.371094 683.535156 C 394.628906 682.546875 395.742188 681.433594 396.691406 680.21875 C 397.953125 679.222656 399.058594 678.117188 400.011719 676.898438 C 401.269531 675.90625 402.378906 674.796875 403.3125 673.589844 C 404.582031 672.589844 405.699219 671.480469 406.644531 670.261719 C 407.898438 669.273438 409.007812 668.167969 409.953125 666.953125 C 411.214844 665.960938 412.328125 664.84375 413.277344 663.625 C 414.535156 662.640625 415.644531 661.53125 416.582031 660.320312 C 417.855469 659.324219 418.960938 658.214844 419.90625 657.003906 C 421.171875 656.003906 422.277344 654.894531 423.234375 653.679688 C 424.488281 652.6875 425.59375 651.578125 426.539062 650.367188 C 427.800781 649.375 428.917969 648.261719 429.863281 647.042969 C 431.113281 646.054688 432.226562 644.945312 433.175781 643.734375 C 434.429688 642.742188 435.546875 641.628906 436.488281 640.414062 C 437.75 639.421875 438.867188 638.308594 439.8125 637.09375 C 441.074219 636.097656 442.183594 634.992188 443.125 633.78125 C 444.386719 632.785156 445.496094 631.675781 446.453125 630.457031 C 447.703125 629.472656 448.8125 628.359375 449.75 627.148438 C 451.019531 626.15625 452.128906 625.046875 453.078125 623.832031 C 454.339844 622.835938 455.449219 621.726562 456.402344 620.507812 C 457.664062 619.515625 458.761719 618.410156 459.707031 617.195312 C 460.972656 616.199219 462.085938 615.09375 463.027344 613.875 C 464.292969 612.882812 465.394531 611.777344 466.34375 610.566406 C 467.605469 609.570312 468.714844 608.453125 469.671875 607.238281 C 470.925781 606.25 472.027344 605.136719 472.972656 603.925781 C 474.238281 602.941406 475.351562 601.824219 476.296875 600.613281 C 477.554688 599.617188 478.664062 598.507812 479.621094 597.289062 C 480.878906 596.300781 481.976562 595.1875 482.921875 593.984375 C 484.191406 592.984375 485.3125 591.875 486.253906 590.65625 C 487.507812 589.664062 488.613281 588.558594 489.5625 587.34375 C 490.820312 586.351562 491.933594 585.242188 492.875 584.03125 C 494.144531 583.035156 495.257812 581.921875 496.199219 580.703125 C 497.460938 579.714844 498.566406 578.605469 499.511719 577.394531 C 500.773438 576.402344 501.882812 575.289062 502.839844 574.070312 C 504.097656 573.078125 505.199219 571.96875 506.144531 570.757812 C 507.410156 569.765625 508.519531 568.65625 509.464844 567.441406 C 510.730469 566.449219 511.839844 565.339844 512.792969 564.117188 C 514.046875 563.125 515.152344 562.019531 516.09375 560.808594 C 517.363281 559.816406 518.472656 558.703125 519.414062 557.488281 C 520.679688 556.492188 521.792969 555.386719 522.738281 554.171875 C 523.988281 553.183594 525.105469 552.070312 526.050781 550.855469 C 527.3125 549.863281 528.425781 548.753906 529.371094 547.53125 C 530.636719 546.546875 531.746094 545.433594 532.683594 544.222656 C 533.945312 543.226562 535.058594 542.121094 536.007812 540.902344 C 537.265625 539.910156 538.371094 538.800781 539.316406 537.589844 C 543.496094 534.292969 546.136719 529.679688 546.136719 524.535156 L 546.136719 383.503906 C 547.320312 382.695312 548.171875 381.757812 548.691406 380.703125 C 550.300781 379.792969 551.378906 378.667969 551.996094 377.390625 C 553.613281 376.480469 554.691406 375.355469 555.324219 374.070312 C 556.9375 373.160156 558.003906 372.035156 558.628906 370.757812 C 560.246094 369.851562 561.320312 368.722656 561.953125 367.4375 C 563.570312 366.527344 564.644531 365.402344 565.269531 364.121094 C 566.878906 363.210938 567.957031 362.085938 568.582031 360.804688 C 570.195312 359.898438 571.28125 358.773438 571.902344 357.484375 C 573.515625 356.574219 574.59375 355.449219 575.214844 354.167969 C 582.1875 350.242188 580.050781 342.554688 567.910156 333.75 " fill-opacity="1" fill-rule="nonzero"/><path fill="#ffffff" d="M 567.910156 333.75 L 515.421875 295.644531 L 515.421875 221.996094 C 515.421875 218.789062 512.792969 216.164062 509.585938 216.164062 L 437.886719 216.164062 C 434.675781 216.164062 432.046875 218.789062 432.046875 221.996094 L 432.046875 235.148438 L 406.953125 216.949219 C 389.390625 204.203125 360.621094 204.203125 343.039062 216.949219 L 182.074219 333.75 C 164.5 346.503906 167.890625 356.941406 189.613281 356.941406 L 204.125 356.941406 C 203.960938 357.835938 203.875 358.742188 203.875 359.664062 L 203.875 524.535156 C 203.875 534.515625 213.691406 542.609375 225.769531 542.609375 L 336.402344 542.609375 C 336.382812 542.203125 336.351562 541.792969 336.351562 541.390625 L 336.351562 446.09375 C 336.351562 435.386719 345.097656 426.632812 355.808594 426.632812 L 394.203125 426.632812 C 404.898438 426.632812 413.660156 435.386719 413.660156 446.09375 L 413.660156 537.765625 C 413.660156 537.765625 413.628906 542.203125 413.59375 542.609375 L 524.238281 542.609375 C 536.320312 542.609375 546.136719 534.515625 546.136719 524.535156 L 546.136719 359.664062 C 546.136719 358.742188 546.046875 357.835938 545.886719 356.941406 L 560.386719 356.941406 C 582.117188 356.941406 585.507812 346.503906 567.910156 333.75 " fill-opacity="1" fill-rule="nonzero"/></svg>